<?xml version="1.0" encoding="UTF-8"?>
<svg xmlns="http://www.w3.org/2000/svg" viewBox="0 0 1200 360" role="img" aria-label="3m5. Webengineers — Skill Hub">
  <rect width="1200" height="360" fill="#092C4C"/>
  <g transform="translate(499.5,70) scale(0.834)" fill="#FFFFFF">
    <path d="M61.1,118.3h-1.2l-2.7-9.1c-.2-.6-.3-1.2-.4-1.6h0c-.1.6-.2,1.1-.4,1.7l-2.6,9h-1.2l-3.2-11.5h1l2.3,8.6c.2.8.4,1.4.5,2.1h0c.1-.7.3-1.4.5-2l2.5-8.7h1.2l2.6,8.8c.2.6.3,1.2.5,1.8h0c.1-.5.2-1,.4-1.5l2.4-9.1h.9l-3,11.5Z"/>
    <path d="M68.8,118.3v-11.5h5.6v.8h-4.7v4.5h4.4v.7h-4.4v4.8h4.7v.8h-5.6Z"/>
    <path d="M82.1,118.4h-2.5v-11.5h2.9c2.5,0,3.6,1.1,3.6,2.7,0,1.4-1,2.5-2.3,2.8h0c1.5,0,2.6,1.2,2.6,2.7,0,0,0,0,0,0,0,1-.5,3.3-4.2,3.3ZM82.4,107.6h-1.8v4.4h1.2c2.3,0,3.5-.9,3.5-2.3,0-1.2-.6-2.1-2.9-2.1ZM81.7,112.7h-1.2v4.8c.6,0,1.1.1,1.7.1,2.3,0,3.2-1.2,3.2-2.6,0-1.8-1.7-2.3-3.8-2.3Z"/>
    <path d="M90.6,118.3v-11.5h6.5v2.2h-3.8v2.3h3.6v2.1h-3.6v2.5h3.8v2.3h-6.5Z"/>
    <path d="M107.3,118.3l-2.7-4.9c-.4-.8-.8-1.7-1.2-2.5,0,.8,0,2,0,3.1v4.4h-2.6v-11.5h3.4l2.5,4.5c.5.9,1,1.9,1.4,2.8,0-1-.1-2.5-.1-3.5v-3.8h2.6v11.5h-3.4Z"/>
    <path d="M123.9,109.6c-1-.4-2-.6-3-.6-1.8-.1-3.4,1.3-3.5,3.1,0,.2,0,.3,0,.5-.2,1.7,1,3.2,2.6,3.4.2,0,.4,0,.6,0,.4,0,.7,0,1.1-.2v-3.8h2.6v5.6c-1.3.5-2.6.8-4,.8-3.7,0-5.9-2.2-5.9-5.6s2.5-6.2,6.6-6.2c1.1,0,2.2.2,3.3.5l-.4,2.4Z"/>
    <path d="M128.4,118.3v-11.5h2.6v11.5h-2.6Z"/>
    <path d="M141.6,118.3l-2.7-4.9c-.4-.8-.8-1.6-1.2-2.5,0,.8,0,2,0,3.1v4.4h-2.6v-11.5h3.4l2.5,4.5c.5.9,1,1.9,1.4,2.8,0-1-.1-2.5-.1-3.5v-3.8h2.5v11.5h-3.4Z"/>
    <path d="M149.2,118.3v-11.5h6.4v2.2h-3.8v2.3h3.6v2.1h-3.6v2.5h3.8v2.3h-6.4Z"/>
    <path d="M159.5,118.3v-11.5h6.5v2.2h-3.8v2.3h3.6v2.1h-3.6v2.5h3.8v2.3h-6.5Z"/>
    <path d="M175.4,118.3l-2.7-4.5h0v4.5h-2.6v-11.5c1,0,2.2,0,3.5,0,2.7,0,4.3,1,4.3,3.4,0,1.5-1,2.9-2.5,3.2.3.4.6.9.9,1.3l2.4,3.7h-3.2ZM173.3,108.9h-.7v2.9h.7c1.2,0,1.8-.6,1.8-1.6s-.5-1.4-1.8-1.4Z"/>
    <path d="M184.1,118.5c-.8,0-1.6,0-2.3-.3v-2.4c.9.3,1.7.4,2.5.4,1,0,1.7-.4,1.7-1.2,0-2-4.6-.9-4.6-4.8s1.7-3.6,4.6-3.6c.7,0,1.4,0,2.1.2l-.2,2.3c-.7-.2-1.3-.3-2-.3-1.1,0-1.6.5-1.6,1.2,0,1.8,4.6,1.1,4.6,4.7,0,2.1-1.8,3.7-4.7,3.7Z"/>
    <path d="M200.7,71.3c-3.1,0-5.7,2.6-5.7,5.7s2.6,5.7,5.7,5.7c3.1,0,5.7-2.6,5.7-5.7,0,0,0,0,0,0,0-3.1-2.6-5.6-5.7-5.6"/>
    <path d="M189,71.2c0-9.6-7.1-16.5-19.9-16.5v-12.7h18.2c0,0,0-8.4,0-8.4h-26.4v28.4c1.5,0,2.9-.2,4.5-.2,9.4,0,14.3,4.4,14.3,10.5s-4.5,10.7-13.8,10.7c-2,0-3.9-.2-5.9-.6l-.9,7.8c2,.3,4.1.4,6.1.4,13.7,0,23.6-8.2,23.6-19.6"/>
    <path d="M148.2,82.6v-27.6c0-9.1-4.3-13.2-12-13.2-5.8,0-11,3.3-13.4,8.6-.6-3.5-3.2-8.6-11.1-8.6-5.9-.1-11.3,3.3-13.6,8.7h-.2c.4-2.7.6-5.3.6-7.9h-8.2v40.2h8.6v-19.2c0-8.4,4.8-14.5,10.3-14.5s5.9,3.5,5.9,8.1v25.7h8.5v-19.2c0-8.8,5.2-14.5,10.3-14.5s5.9,3.2,5.9,8.2v25.6h8.5Z"/>
    <path d="M78.6,72.6c0-6.5-3.9-11.9-10.7-13.1h0c5.6-2.4,9.4-7.1,9.4-13.2s-4.9-12.9-15.9-12.9c-4,0-8.1.8-11.8,2.3l.8,7.3c2.8-1.6,6-2.4,9.3-2.4,5.3,0,8.6,2.8,8.6,7.3,0,6.5-6.1,9.8-16.8,9.7v6.9c10.7-1.2,17.8,1.7,17.8,9.1s-4.4,10-12.5,10c-2.4,0-4.8-.4-7.1-1.1l-.9,7.6c2.5.6,5,.9,7.5.9,14.4,0,22.5-8.2,22.5-18.5"/>
  </g>
  <text x="600" y="300" text-anchor="middle" fill="#FFFFFF" font-family="Cabin, Inter, 'Helvetica Neue', Arial, sans-serif" font-size="30" font-weight="700" letter-spacing="14" opacity="0.92">SKILL HUB</text>
</svg>
